<svg xmlns="http://www.w3.org/2000/svg" width="201.096" height="56" viewBox="0 0 201.096 56">
  <g id="Grupo_1" data-name="Grupo 1" transform="translate(-58 -230)">
    <rect id="Rectángulo_1" data-name="Rectángulo 1" width="56" height="56" rx="7" transform="translate(58 230)" fill="#6759e8"/>
    <path id="Trazado_2" data-name="Trazado 2" d="M13.8-19.99V-32.27h7a18.866,18.866,0,0,1,2.984.23,6.943,6.943,0,0,1,2.525.889,4.845,4.845,0,0,1,1.75,1.865,6.555,6.555,0,0,1,.66,3.156,6.555,6.555,0,0,1-.66,3.156,4.845,4.845,0,0,1-1.75,1.865,6.943,6.943,0,0,1-2.525.889,18.867,18.867,0,0,1-2.984.23ZM4.795-39.27V1.7H13.8V-12.99h9.468a17.064,17.064,0,0,0,6.541-1.119,12.238,12.238,0,0,0,4.39-2.955,11.314,11.314,0,0,0,2.467-4.217,15.581,15.581,0,0,0,.775-4.849,15.494,15.494,0,0,0-.775-4.877A11.352,11.352,0,0,0,34.2-35.2a12.238,12.238,0,0,0-4.39-2.955,17.064,17.064,0,0,0-6.541-1.119ZM39.141-18.843a9.465,9.465,0,0,1,1.434-4.763,9.768,9.768,0,0,1,3.213-3.041,14,14,0,0,1,4.39-1.635,24.956,24.956,0,0,1,4.906-.488,33.249,33.249,0,0,1,4.533.316,13.867,13.867,0,0,1,4.189,1.234,8.253,8.253,0,0,1,3.1,2.553,7.135,7.135,0,0,1,1.2,4.332V-4.9a31,31,0,0,0,.23,3.844,6.949,6.949,0,0,0,.8,2.754H58.879A11.691,11.691,0,0,1,58.506.293a12.24,12.24,0,0,1-.2-1.463,10.618,10.618,0,0,1-4.59,2.812,18.425,18.425,0,0,1-5.394.8,14.572,14.572,0,0,1-3.959-.516A9.067,9.067,0,0,1,41.149.322,7.479,7.479,0,0,1,39-2.432a9.312,9.312,0,0,1-.775-3.959,8.65,8.65,0,0,1,.889-4.16,7.436,7.436,0,0,1,2.3-2.611,10.283,10.283,0,0,1,3.213-1.463,34.3,34.3,0,0,1,3.644-.775q1.836-.287,3.615-.459a21.739,21.739,0,0,0,3.156-.516,5.5,5.5,0,0,0,2.18-1,2.2,2.2,0,0,0,.746-1.922,4.323,4.323,0,0,0-.43-2.094,3.165,3.165,0,0,0-1.148-1.2,4.514,4.514,0,0,0-1.664-.574,13.616,13.616,0,0,0-2.037-.143A6.184,6.184,0,0,0,48.9-22.286a4.611,4.611,0,0,0-1.607,3.443Zm18.821,6.025a3.655,3.655,0,0,1-1.291.717,13.186,13.186,0,0,1-1.664.43q-.889.172-1.865.287t-1.951.287a14.714,14.714,0,0,0-1.807.459,5.344,5.344,0,0,0-1.549.775,3.682,3.682,0,0,0-1.062,1.234,3.969,3.969,0,0,0-.4,1.894,3.833,3.833,0,0,0,.4,1.836,3.079,3.079,0,0,0,1.09,1.176,4.6,4.6,0,0,0,1.607.6,10.255,10.255,0,0,0,1.894.172,7.2,7.2,0,0,0,3.73-.8,5.373,5.373,0,0,0,1.951-1.922,6.147,6.147,0,0,0,.775-2.266,15.57,15.57,0,0,0,.143-1.836ZM69.7-27.966V1.7h8.148v-15.55q0-4.533,1.492-6.513t4.82-1.98q2.926,0,4.074,1.807a10.4,10.4,0,0,1,1.148,5.48V1.7h8.148V-16.548a23.91,23.91,0,0,0-.488-5.021,9.549,9.549,0,0,0-1.693-3.844,7.954,7.954,0,0,0-3.3-2.467,13.838,13.838,0,0,0-5.365-.889,11.615,11.615,0,0,0-5.049,1.176,9.349,9.349,0,0,0-4.017,3.758h-.172v-4.131Zm52.273,11.648H108.718a9.352,9.352,0,0,1,.373-1.951,5.99,5.99,0,0,1,1.09-2.066,6.172,6.172,0,0,1,2.066-1.635,7.088,7.088,0,0,1,3.242-.66,5.722,5.722,0,0,1,4.447,1.607A9.417,9.417,0,0,1,121.973-16.318Zm-13.255,5.164h21.4a20.943,20.943,0,0,0-.574-6.6,16.152,16.152,0,0,0-2.611-5.623,13.169,13.169,0,0,0-4.619-3.931,14.106,14.106,0,0,0-6.6-1.463,15.364,15.364,0,0,0-6.168,1.2,14.584,14.584,0,0,0-4.791,3.3,14.542,14.542,0,0,0-3.1,4.963,17.3,17.3,0,0,0-1.09,6.2,18.062,18.062,0,0,0,1.062,6.312,14.333,14.333,0,0,0,3.012,4.935,13.124,13.124,0,0,0,4.763,3.185,16.943,16.943,0,0,0,6.312,1.119,15.539,15.539,0,0,0,8.607-2.3q3.558-2.3,5.279-7.631h-7.172a5.118,5.118,0,0,1-2.18,2.611,7.264,7.264,0,0,1-4.246,1.234,7.284,7.284,0,0,1-5.279-1.779Q108.89-7.195,108.718-11.154ZM133.448-39.27V1.7H141.6V-39.27Z" transform="translate(117 277.27)" fill="#6759e8" stroke="#6759e8" stroke-width="1"/>
    <path id="Trazado_1" data-name="Trazado 1" d="M14.026-18.13l5.247-14.781h.113L24.462-18.13Zm.846-24.71L-.36-2.56H8.554l3.159-8.97H26.775l3.046,8.97h9.2L23.955-42.84Z" transform="translate(66.36 280.84)" fill="#fff"/>
  </g>
</svg>
