<svg xmlns="http://www.w3.org/2000/svg" width="292.954" height="89.406" viewBox="0 0 292.954 89.406">
  <g id="Grupo_2" data-name="Grupo 2" transform="translate(-223.116 -432.45)">
    <path id="Trazado_4" data-name="Trazado 4" d="M338.572,479.257h-9.85v11.291H338.4a12.065,12.065,0,0,0,2.535-.26,6.235,6.235,0,0,0,2.131-.864,4.348,4.348,0,0,0,1.469-1.642,5.661,5.661,0,0,0,.547-2.649q0-3.168-1.785-4.522A7.629,7.629,0,0,0,338.572,479.257Z" fill="#ffcc00"/>
    <path id="Trazado_5" data-name="Trazado 5" d="M341.855,471.941a4.346,4.346,0,0,0,1.556-3.744,4.783,4.783,0,0,0-.518-2.361,3.838,3.838,0,0,0-1.383-1.44,5.834,5.834,0,0,0-1.988-.72,13.126,13.126,0,0,0-2.333-.2h-8.467v9.62h9.159A6.494,6.494,0,0,0,341.855,471.941Z" fill="#ffcc00"/>
    <path id="Trazado_6" data-name="Trazado 6" d="M506.472,432.45H232.713a9.6,9.6,0,0,0-9.6,9.6v70.21a9.6,9.6,0,0,0,9.6,9.6H248.1c5.228,0,9.466-4.6,9.466-10.273,0-4.445-.988-6.366-3.8-8.052-.523-.26-1.035-.537-1.539-.826l-.121-.06h.017a29.448,29.448,0,1,1,44.187-25.492,29.73,29.73,0,0,1-.2,3.382l.025,11.427c0,15.981,11.795,29.035,26.647,29.894H506.472a9.6,9.6,0,0,0,9.6-9.6v-70.21A9.6,9.6,0,0,0,506.472,432.45ZM352.915,491.037a10.5,10.5,0,0,1-3.255,3.716,14.4,14.4,0,0,1-4.665,2.131,21.029,21.029,0,0,1-5.386.691H319.678V456.446h19.355a25.59,25.59,0,0,1,5.357.519,11.575,11.575,0,0,1,4.147,1.7,7.909,7.909,0,0,1,2.679,3.139,11.03,11.03,0,0,1,.95,4.839,9.014,9.014,0,0,1-1.411,5.184,10.255,10.255,0,0,1-4.176,3.4,9.893,9.893,0,0,1,5.674,3.831,12.57,12.57,0,0,1,.662,11.981Zm33.929,6.538-12.385-18.491-5.185,5.242v13.249H360.23V456.446h9.044V473.5l16.072-17.051h11.29L380.564,472.69l17.627,24.885Zm22.521,0h-8.179V467.794h8.179Zm0-34.389h-8.179v-6.74h8.179Zm42.052,34.389h-9.044l-17.108-27.534h-.116v27.534h-8.467V456.446h8.986l17.166,27.592h.115V456.446h8.468Zm44.354,0h-5.76l-.922-4.666a13.557,13.557,0,0,1-5.358,4.35A15.161,15.161,0,0,1,477.8,498.5a21.092,21.092,0,0,1-8.5-1.642,18.182,18.182,0,0,1-6.365-4.522,20.019,20.019,0,0,1-3.975-6.769,24.821,24.821,0,0,1-1.383-8.38,25.694,25.694,0,0,1,1.383-8.555,20.568,20.568,0,0,1,3.975-6.884,18.173,18.173,0,0,1,6.365-4.607,20.747,20.747,0,0,1,8.5-1.671,19.985,19.985,0,0,1,6.135.95,17.393,17.393,0,0,1,5.356,2.794,15.111,15.111,0,0,1,5.848,10.772H486.5a8.657,8.657,0,0,0-3.111-5.184,9.041,9.041,0,0,0-5.587-1.729,10.57,10.57,0,0,0-5.185,1.181,9.793,9.793,0,0,0-3.456,3.169,13.854,13.854,0,0,0-1.929,4.521,22.482,22.482,0,0,0-.606,5.243,20.9,20.9,0,0,0,.606,5.04,13.6,13.6,0,0,0,1.929,4.407,9.88,9.88,0,0,0,3.456,3.139,10.547,10.547,0,0,0,5.185,1.181q4.492,0,6.941-2.275a9.892,9.892,0,0,0,2.851-6.6h-9.1v-6.74h17.281Z" fill="#ffcc00"/>
  </g>
</svg>
