<svg xmlns="http://www.w3.org/2000/svg" width="264.316" height="141.387" viewBox="0 0 264.316 141.387">
  <g id="Layer_2" data-name="Layer 2" transform="translate(0 0)">
    <g id="Layer_1" data-name="Layer 1">
      <g id="Grupo_1" data-name="Grupo 1">
        <path id="Trazado_1" data-name="Trazado 1" d="M105.5,65.06,97.2,62.7l-2.7,9.52,8.16,2.31a10.71,10.71,0,0,0,2.2.39,5.67,5.67,0,0,0,2-.22,3.86,3.86,0,0,0,1.63-1,4.84,4.84,0,0,0,1.09-2.1,4.67,4.67,0,0,0-.42-4.24,6.67,6.67,0,0,0-3.66-2.3Z" fill="#fff"/>
        <path id="Trazado_2" data-name="Trazado 2" d="M111.53,53.23a5.24,5.24,0,0,0-1.5-1.08,12.51,12.51,0,0,0-1.92-.73l-7.14-2-2.3,8.11,7.72,2.19a5.74,5.74,0,0,0,3.63,0,3.8,3.8,0,0,0,2.2-2.78,4.22,4.22,0,0,0,.13-2.11,3.47,3.47,0,0,0-.82-1.6Z" fill="#fff"/>
        <path id="Trazado_3" data-name="Trazado 3" d="M258.18,65.72,27.47.32a8.41,8.41,0,0,0-10.38,5.8L.32,65.28a8.4,8.4,0,0,0,5.8,10.38l13,3.68c4.4,1.25,9.07-1.61,10.43-6.39,1.06-3.75.69-5.61-1.28-7.7-.38-.34-.74-.7-1.1-1.06l-.09-.08h0A25.79,25.79,0,1,1,70.4,53.19a28.928,28.928,0,0,1-1,2.8l-2.71,9.64c-3.82,13.46,3,27.28,15.32,31.55L236.8,141.07a8.42,8.42,0,0,0,10.38-5.8L264,76.1a8.41,8.41,0,0,0-5.82-10.38Zm-94.46-4.93,6.89,2L169,68.43l-6.89-2Zm-46.18.91a8.91,8.91,0,0,1-4.33,1.87,8.7,8.7,0,0,1,3.87,4.58,10.08,10.08,0,0,1,0,6,9.9,9.9,0,0,1-2.31,4.25,9.08,9.08,0,0,1-3.63,2.35,12.42,12.42,0,0,1-4.44.68,18,18,0,0,1-4.7-.7L85.2,76,95,41.32l16.31,4.62a22.44,22.44,0,0,1,4.39,1.72,10.09,10.09,0,0,1,3.09,2.42,7,7,0,0,1,1.51,3.29,9.67,9.67,0,0,1-.36,4.3,7.8,7.8,0,0,1-2.4,4.03ZM141.81,92l-6-18.54-5.63,3.18L127,87.83l-7.62-2.16L129.2,51l7.62,2.16-4.07,14.37L150.37,57l9.51,2.69-17.42,9.85,8.91,25.19Zm12.08,3.43L161,70.35l6.89,2-7.12,25.1Zm34.71,9.84L180.76,78h-.1l-6.58,23.21-7.13-2,9.83-34.66,7.57,2.15L192.22,94h.1l6.59-23.25,7.14,2-9.83,34.66Zm51.06-10.65-7.28-2.06A7.62,7.62,0,0,0,231,87.47a7.9,7.9,0,0,0-4.29-2.79,9.26,9.26,0,0,0-4.65-.25,8.57,8.57,0,0,0-3.67,1.85,12,12,0,0,0-2.71,3.35,19.661,19.661,0,0,0-1.76,4.27,18.51,18.51,0,0,0-.7,4.39,11.79,11.79,0,0,0,.58,4.18,8.68,8.68,0,0,0,2.16,3.47,9.3,9.3,0,0,0,4.09,2.23,8.56,8.56,0,0,0,6.39-.26,8.68,8.68,0,0,0,4-4.87l-7.67-2.18,1.61-5.68,14.56,4.13-5.31,18.74-4.86-1.38.34-4.15a11.76,11.76,0,0,1-5.55,2.38,13.21,13.21,0,0,1-5.3-.37,18.41,18.41,0,0,1-6.76-3.41,16,16,0,0,1-4.29-5.33,17.54,17.54,0,0,1-1.73-6.66,21.57,21.57,0,0,1,.84-7.39,22.34,22.34,0,0,1,3.21-6.88,18,18,0,0,1,5-4.85A15.76,15.76,0,0,1,221,77.65a18.19,18.19,0,0,1,7.56.62,17.64,17.64,0,0,1,5,2.26,15.31,15.31,0,0,1,3.84,3.64A13.381,13.381,0,0,1,239.54,89a13.54,13.54,0,0,1,.12,5.64Z" fill="#fff"/>
      </g>
    </g>
  </g>
</svg>
