<?xml version="1.0" encoding="UTF-8"?>
<svg xmlns="http://www.w3.org/2000/svg" xmlns:xlink="http://www.w3.org/1999/xlink" version="1.1" viewBox="0 0 31.9 32">
  <defs>
    <style>
      .cls-1 {
        fill: #fc0;
      }

      .cls-2 {
        fill: url(#Degradado_sin_nombre);
      }

      .cls-3 {
        fill: url(#Degradado_sin_nombre_2);
      }
    </style>
    <linearGradient id="Degradado_sin_nombre" data-name="Degradado sin nombre" x1="-270.2" y1="423.8" x2="-269.6" y2="423.1" gradientTransform="translate(8676 12009.1) scale(31.9 -28.4)" gradientUnits="userSpaceOnUse">
      <stop offset="0" stop-color="#41d1ff"/>
      <stop offset="1" stop-color="#bd34fe"/>
    </linearGradient>
    <linearGradient id="Degradado_sin_nombre_2" data-name="Degradado sin nombre 2" x1="-257.5" y1="422.8" x2="-257.4" y2="422" gradientTransform="translate(3837.2 11236.3) scale(14.6 -26.6)" gradientUnits="userSpaceOnUse">
      <stop offset="0" stop-color="#ffea83"/>
      <stop offset="0" stop-color="#ffdd35"/>
      <stop offset="1" stop-color="#ffa800"/>
    </linearGradient>
  </defs>
  <!-- Generator: Adobe Illustrator 28.6.0, SVG Export Plug-In . SVG Version: 1.2.0 Build 709)  -->
  <g>
    <g id="Capa_1">
      <path class="cls-2" d="M87.5-26L72.5.8c-.3.6-1.1.6-1.4,0l-15.3-26.8c-.3-.6.2-1.3.9-1.2l15,2.7c0,0,.2,0,.3,0l14.7-2.7c.7-.1,1.2.6.9,1.2Z"/>
      <path class="cls-3" d="M78.8-30.7l-11.1,2.2c-.2,0-.3.2-.3.4l-.7,11.5c0,.2.2.4.4.4,0,0,0,0,.1,0l3.1-.7c.3,0,.5.2.5.5l-.9,4.5c0,.3.2.6.5.5l1.9-.6c.3,0,.6.2.5.5l-1.5,7.1c0,.4.5.7.7.3l.2-.3,9-18c.2-.3-.1-.6-.4-.6l-3.2.6c-.3,0-.6-.2-.5-.5l2.1-7.2c0-.3-.2-.6-.5-.5h0Z"/>
      <g id="Grupo_2">
        <path id="Trazado_4" class="cls-1" d="M17.7,16.7h-3.5v4h3.5c.3,0,.6,0,.9,0,.3,0,.5-.2.8-.3.2-.1.4-.3.5-.6.1-.3.2-.6.2-.9,0-.8-.2-1.3-.6-1.6-.5-.3-1.1-.5-1.7-.5Z"/>
        <path id="Trazado_5" class="cls-1" d="M18.8,14.1c.4-.3.6-.8.6-1.3,0-.3,0-.6-.2-.8-.1-.2-.3-.4-.5-.5-.2-.1-.5-.2-.7-.3-.3,0-.6,0-.8,0h-3v3.4h3.3c.5,0,1-.1,1.4-.4Z"/>
        <path id="Trazado_6" class="cls-1" d="M27.9,0H.2s0,12.2,0,16c0,.4,0,.8,0,1.2v4.1c0,5.7,4.2,10.4,9.5,10.7h18.3c1.9,0,3.4-1.5,3.4-3.4V3.4c0-1.9-1.5-3.4-3.4-3.4ZM22.8,20.9c-.3.5-.7,1-1.2,1.3-.5.4-1.1.6-1.7.8-.6.2-1.3.2-1.9.2h-7.1v-14.7h6.9c.6,0,1.3,0,1.9.2.5.1,1,.3,1.5.6.4.3.7.7,1,1.1.2.5.4,1.1.3,1.7,0,.7-.2,1.3-.5,1.9-.4.5-.9,1-1.5,1.2.8.2,1.5.7,2,1.4.8,1.3.9,2.9.2,4.3h0Z"/>
      </g>
    </g>
  </g>
</svg>